Coordinates
version=1
nRows=11
nColumns=63
inDegrees=yes

Units are S.I. units (second, meters, Newtons, ...)
If the header above contains a line with 'inDegrees', this indicates whether rotational values are in degrees (yes) or radians (no).

endheader
time	pelvis_tilt	pelvis_list	pelvis_rotation	pelvis_tx	pelvis_ty	pelvis_tz	hip_flexion_r	hip_adduction_r	hip_rotation_r	knee_angle_r	knee_angle_r_beta	ankle_angle_r	subtalar_angle_r	mtp_angle_r	hip_flexion_l	hip_adduction_l	hip_rotation_l	knee_angle_l	knee_angle_l_beta	ankle_angle_l	subtalar_angle_l	mtp_angle_l	L5_S1_Flex_Ext	L5_S1_Lat_Bending	L5_S1_axial_rotation	L4_L5_Flex_Ext	L4_L5_Lat_Bending	L4_L5_axial_rotation	L3_L4_Flex_Ext	L3_L4_Lat_Bending	L3_L4_axial_rotation	L2_L3_Flex_Ext	L2_L3_Lat_Bending	L2_L3_axial_rotation	L1_L2_Flex_Ext	L1_L2_Lat_Bending	L1_L2_axial_rotation	L1_T12_Flex_Ext	L1_T12_Lat_Bending	L1_T12_axial_rotation	Abs_r3	Abs_r2	Abs_r1	Abs_t1	Abs_t2	neck_flexion	neck_bending	neck_rotation	arm_flex_r	arm_add_r	arm_rot_r	elbow_flex_r	pro_sup_r	wrist_flex_r	wrist_dev_r	arm_flex_l	arm_add_l	arm_rot_l	elbow_flex_l	pro_sup_l	wrist_flex_l	wrist_dev_l
      5.06382979	     -1.76683837	     -2.59021571	     88.73887028	      0.19904102	      0.99002591	      0.52354529	      0.17417510	     -1.91913396	     -6.84335286	     15.61888031	      0.27260089	     34.31618932	      5.01534194	      0.00000000	     -3.57612464	      3.06795516	     -9.39701533	      9.05960058	      0.15811986	     32.69802323	      5.76122425	      0.00000000	     -0.25187750	     -0.21225419	     -0.46384614	     -0.46776171	     -0.28229807	     -0.49283653	     -0.41380955	     -0.51607484	     -0.49283653	     -0.28787080	     -0.51607484	     -0.40586537	     -0.23389345	     -0.43282875	     -0.37687499	     -0.14392280	     -0.32878174	     -0.34788461	     -1.79913581	     -2.40106186	     -2.57977308	      0.00000000	      0.00000000	     16.91833513	     -3.49567326	     -6.41232062	    -22.39411050	    -14.58603922	     -5.23319245	    126.35358546	     87.58074065	     -7.82777756	     -3.55908564	     -9.23446589	    -12.32297019	     12.42982874	     68.37544875	     89.34899929	     -4.41663263	     -8.88967229
      5.08510638	     -1.59274993	     -2.40156035	     89.53558087	      0.19839691	      0.99009618	      0.52218439	     -0.30972082	     -1.66689522	     -7.44639431	     15.33852956	      0.26770784	     34.05332653	      4.77720583	      0.00000000	     -3.92680899	      2.86049310	     -8.36283374	      8.91223129	      0.15554778	     32.49406624	      5.12488463	      0.00000000	     -0.23531733	     -0.26666096	     -0.52023281	     -0.43700782	     -0.35465908	     -0.55274736	     -0.38660284	     -0.64835947	     -0.55274736	     -0.26894418	     -0.64835947	     -0.45520371	     -0.21851567	     -0.54377504	     -0.42268916	     -0.13446032	     -0.41305783	     -0.39017461	     -1.68084817	     -3.01652216	     -2.89337884	      0.00000000	      0.00000000	     16.11510939	     -2.71999779	     -8.18688233	    -21.63841190	    -14.13886990	     -8.26388255	    125.48150306	     87.57967391	     -8.95702180	     -2.26127820	     -8.80249784	    -12.59841997	     13.91953541	     70.94664854	     89.35752282	     -3.22417488	     -8.32568892
      5.10638298	     -1.42406138	     -2.18683131	     90.24726703	      0.19800623	      0.99025299	      0.52035447	     -0.87799092	     -1.37499461	     -7.79052495	     14.95589026	      0.26102953	     33.81844273	      4.54791538	      0.00000000	     -4.37933277	      2.63554639	     -7.61035975	      8.66027999	      0.15115040	     32.41408276	      4.82791287	      0.00000000	     -0.21010254	     -0.32713139	     -0.56919702	     -0.39018144	     -0.43508475	     -0.60477184	     -0.34517747	     -0.79538727	     -0.60477184	     -0.24012620	     -0.79538727	     -0.49804739	     -0.19510122	     -0.66708633	     -0.46247258	     -0.12005259	     -0.50672653	     -0.42689777	     -1.50074147	     -3.70057573	     -3.16570307	      0.00000000	      0.00000000	     14.98014026	     -1.67285226	     -9.73199640	    -20.98975928	    -13.88140313	    -10.38907714	    123.88372869	     87.59170620	    -10.04269635	     -1.17116548	     -8.53605474	    -12.77102284	     15.33163107	     73.30036310	     89.34507675	     -2.08270515	     -7.47036113
      5.12765957	     -1.19775623	     -1.97939371	     90.84369552	      0.19754872	      0.99039693	      0.51845438	     -1.37741015	     -1.03596815	     -8.05603437	     14.67942474	      0.25620429	     33.60232197	      4.31654355	      0.00000000	     -4.79280938	      2.42746246	     -6.07889947	      8.41902134	      0.14693964	     32.28863889	      3.36308709	      0.00000000	     -0.17989557	     -0.37318855	     -0.62788999	     -0.33408406	     -0.49634077	     -0.66713311	     -0.29555043	     -0.90737063	     -0.66713311	     -0.20560264	     -0.90737063	     -0.54940374	     -0.16705102	     -0.76100608	     -0.51016062	     -0.10279233	     -0.57806906	     -0.47091749	     -1.28497604	     -4.22158348	     -3.49213575	      0.00000000	      0.00000000	     13.66437968	     -0.95105877	    -10.93882422	    -20.65187728	    -13.90825193	    -11.35189475	    122.05271224	     87.54439184	    -10.46503843	      0.11371797	     -8.47576633	    -12.61842845	     16.09259778	     75.64932342	     89.29573318	     -0.05254223	     -4.44954512
      5.14893617	     -1.02877348	     -1.71906865	     91.03173939	      0.19762199	      0.99054514	      0.51616764	     -1.89718861	     -0.76857586	     -8.00300444	     14.45256453	      0.25224484	     33.42496776	      4.15066016	      0.00000000	     -5.31875775	      2.28377036	     -5.20843381	      8.11199992	      0.14158111	     32.27889029	      2.36132075	      0.00000000	     -0.15052091	     -0.41497061	     -0.64735587	     -0.27953239	     -0.55191091	     -0.68781562	     -0.24729081	     -1.00895955	     -0.68781562	     -0.17203035	     -1.00895955	     -0.56643639	     -0.13977372	     -0.84620807	     -0.52597665	     -0.08600765	     -0.64278948	     -0.48551691	     -1.07515584	     -4.69423056	     -3.60039917	      0.00000000	      0.00000000	     12.46597968	      0.15715226	    -11.10145618	    -20.95913822	    -13.86341282	    -11.16618262	    120.61244202	     87.11358578	    -10.39443755	      1.89991053	     -8.50822546	    -12.34674021	     16.86596963	     77.56037221	     89.16341180	      0.69926733	     -1.63881985
      5.17021277	     -0.92455007	     -1.47905126	     90.93244625	      0.19805727	      0.99043680	      0.51369011	     -2.38370492	     -0.58092820	     -7.65508940	     14.21713386	      0.24813580	     33.30807743	      4.03245952	      0.00000000	     -5.85087440	      2.23402721	     -4.56938976	      7.75430086	      0.13533808	     32.47542693	      1.50472387	      0.00000000	     -0.11587024	     -0.45299451	     -0.64288308	     -0.21518262	     -0.60248270	     -0.68306327	     -0.19036322	     -1.10141086	     -0.68306327	     -0.13242810	     -1.10141086	     -0.56252270	     -0.10759710	     -0.92374641	     -0.52234250	     -0.06620825	     -0.70168850	     -0.48216231	     -0.82764953	     -5.12436453	     -3.57552283	      0.00000000	      0.00000000	     11.37152415	      1.13321905	    -10.76027957	    -21.71060568	    -13.72744700	    -10.10453852	    119.79240656	     85.98155155	     -9.78242845	      3.85886101	     -8.64120667	    -11.80838591	     17.24758756	     79.26344493	     88.89242602	      0.84906848	      1.63853723
      5.19148936	     -0.88127656	     -1.16237463	     90.67839569	      0.19886757	      0.99020120	      0.51097692	     -2.92303663	     -0.37977213	     -6.49668942	     14.02789505	      0.24483296	     33.20567142	      2.93462513	      0.00000000	     -6.56041246	      2.41979763	     -1.46888476	      7.20170823	      0.12569352	     31.92674701	     -2.77331059	      0.00000000	     -0.09056144	     -0.49022692	     -0.63981373	     -0.16818165	     -0.65200180	     -0.67980209	     -0.14878339	     -1.19193773	     -0.67980209	     -0.10350267	     -1.19193773	     -0.55983701	     -0.08409536	     -0.99967073	     -0.51984866	     -0.05174681	     -0.75936149	     -0.47986030	     -0.64687133	     -5.54554493	     -3.55845202	      0.00000000	      0.00000000	     10.32920160	      1.82591691	    -10.13725039	    -22.34549771	    -13.69502372	     -8.41555818	    119.37789969	     83.60956536	     -8.46226001	      5.13361591	     -8.80346577	    -11.15830344	     17.25837182	     80.86215681	     88.49697861	      1.02913451	      4.92221992
      5.21276596	     -0.87148911	     -0.80011375	     90.44326832	      0.19997661	      0.98993089	      0.50834601	     -3.53617978	     -0.29722307	     -6.14081759	     13.82052088	      0.24121359	     33.29371713	      2.97951524	      0.00000000	     -7.17256408	      2.41921335	     -1.22065016	      6.99691046	      0.12211912	     32.18685681	     -3.16144089	      0.00000000	     -0.07690771	     -0.52178506	     -0.63886106	     -0.14282530	     -0.69397413	     -0.67878988	     -0.12635167	     -1.26866819	     -0.67878988	     -0.08789782	     -1.26866819	     -0.55900343	     -0.07141650	     -1.06402409	     -0.51907461	     -0.04394506	     -0.80824505	     -0.47914580	     -0.54934406	     -5.90253693	     -3.55315356	      0.00000000	      0.00000000	      9.38454495	      2.12859889	     -9.21480066	    -22.69940443	    -13.75499815	     -6.67115451	    119.47286921	     81.80518446	     -7.08965281	      5.58716258	     -8.86014017	    -10.68548310	     17.72507622	     82.19295898	     88.10363367	     -0.31962605	      7.05514821
      5.23404255	     -0.79819427	     -0.40084274	     90.40088490	      0.20104020	      0.98972659	      0.50611522	     -4.20167872	     -0.09826174	     -5.73819678	     13.58258900	      0.23706090	     33.24286288	      2.61588913	      0.00000000	     -7.66291876	      2.30779276	     -0.96892165	      7.09045160	      0.12375173	     32.48655824	     -3.51533036	      0.00000000	     -0.07976769	     -0.53801215	     -0.66898317	     -0.14813657	     -0.71555616	     -0.71079462	     -0.13105033	     -1.30812274	     -0.71079462	     -0.09116649	     -1.30812274	     -0.58536027	     -0.07407227	     -1.09711437	     -0.54354882	     -0.04557926	     -0.83338082	     -0.50173738	     -0.56977262	     -6.08610102	     -3.72068368	      0.00000000	      0.00000000	      8.50909423	      2.01568548	     -8.33887098	    -22.68898912	    -13.91519337	     -5.12086559	    119.97857873	     81.14855512	     -5.98092338	      4.91756025	     -8.84260393	    -10.41772464	     18.39827988	     83.01467690	     88.00175751	     -0.89345528	      8.20354589
      5.25531915	     -0.74869258	      0.02116156	     90.38646879	      0.20203052	      0.98956197	      0.50423256	     -4.86796138	      0.05134893	     -5.50336550	     13.37450384	      0.23342913	     33.16582635	      2.34249914	      0.00000000	     -8.05898649	      2.20353312	     -1.03793728	      7.41892820	      0.12948472	     32.78803879	     -3.66633349	      0.00000000	     -0.09828411	     -0.54917519	     -0.69817754	     -0.18252342	     -0.73040300	     -0.74181363	     -0.16147096	     -1.33526455	     -0.74181363	     -0.11232891	     -1.33526455	     -0.61090534	     -0.09126662	     -1.11987804	     -0.56726925	     -0.05615954	     -0.85067236	     -0.52363315	     -0.70203357	     -6.21237954	     -3.88305401	      0.00000000	      0.00000000	      7.68789740	      1.42078797	     -7.77129581	    -22.41913182	    -13.94777580	     -4.13194400	    121.09744441	     81.96771298	     -5.57811764	      4.20711531	     -8.84558868	    -10.45405929	     19.45029070	     83.44679708	     88.11512602	     -0.46643771	      8.85459430
      5.27659574	     -0.64278187	      0.36792218	     90.39589334	      0.20310287	      0.98920769	      0.50255375	     -5.41632928	      0.33582287	     -4.68250518	     13.21013722	      0.23056039	     32.96938467	      1.13250552	      0.00000000	     -8.37001238	      1.99467206	     -1.54487425	      7.76529778	      0.13553001	     33.20790519	     -3.21947016	      0.00000000	     -0.11981637	     -0.55729380	     -0.75850915	     -0.22251099	     -0.74120076	     -0.80591597	     -0.19684632	     -1.35500415	     -0.80591597	     -0.13693813	     -1.35500415	     -0.66369551	     -0.11126148	     -1.13643352	     -0.61628869	     -0.06846308	     -0.86324810	     -0.56888186	     -0.85583637	     -6.30421896	     -4.21860035	      0.00000000	      0.00000000	      7.01507528	      0.62709327	     -7.76823182	    -21.88391524	    -13.86223646	     -4.02247315	    122.67397292	     85.22012784	     -5.81938802	      3.06597933	     -9.10866151	    -10.67798681	     20.28790652	     84.01851667	     88.29504984	      2.07609427	     10.63842064
